<svg width="143" height="20" viewBox="0 0 143 20" fill="none" xmlns="http://www.w3.org/2000/svg">
<g clip-path="url(#clip0_56_638)">
<path d="M110.051 14.2834C110.042 14.097 110.071 13.9107 110.135 13.736C110.2 13.5613 110.298 13.402 110.425 13.2679C110.552 13.1338 110.704 13.0277 110.872 12.9563C111.041 12.8849 111.222 12.8496 111.404 12.8526C112.202 12.8526 112.737 13.4372 112.737 14.2834C112.745 14.469 112.715 14.6542 112.651 14.8279C112.587 15.0016 112.489 15.1602 112.363 15.2942C112.238 15.4282 112.087 15.5348 111.92 15.6076C111.753 15.6804 111.573 15.718 111.392 15.718C111.21 15.718 111.031 15.6804 110.864 15.6076C110.697 15.5348 110.547 15.4282 110.421 15.2942C110.295 15.1602 110.197 15.0016 110.133 14.8279C110.069 14.6542 110.039 14.469 110.047 14.2834H110.051Z" fill="black"/>
<path d="M0 8.82621C0 10.5718 0.505586 12.2783 1.45282 13.7298C2.40005 15.1813 3.74639 16.3125 5.32158 16.9806C6.89675 17.6486 8.63005 17.8234 10.3022 17.4828C11.9745 17.1422 13.5105 16.3016 14.7161 15.0673C15.9217 13.8329 16.7427 12.2602 17.0753 10.5481C17.4079 8.836 17.2372 7.06135 16.5848 5.44855C15.9323 3.83578 14.8274 2.45732 13.4098 1.48748C11.9921 0.517646 10.3255 0 8.6205 0C6.33421 0 4.14153 0.929901 2.52488 2.58513C0.908227 4.24037 0 6.48535 0 8.82621Z" fill="#E07F1E"/>
<path d="M8.63601 0.491367C6.72567 0.491367 4.89356 1.26836 3.54272 2.65142C2.1919 4.03449 1.43301 5.91031 1.43301 7.86625C1.43282 8.25711 1.46329 8.64736 1.52412 9.03323C2.45504 6.54231 4.99898 4.75206 7.99393 4.75206C10.4934 4.75206 12.6796 6.00092 13.8772 7.86397H13.8927C14.5896 7.84517 15.2692 8.08788 15.8034 8.54643C15.8234 8.31892 15.8346 8.09145 15.8346 7.86397C15.8346 5.90803 15.0757 4.03222 13.7248 2.64915C12.374 1.26609 10.5419 0.48909 8.63157 0.48909" fill="#EFCA30"/>
<path d="M15.8079 8.54415C15.2737 8.08563 14.5941 7.84289 13.8972 7.86169H13.8772C11.7576 7.87535 9.52696 9.75889 8.88932 12.0837C8.5494 13.3212 8.72935 14.4359 9.29146 15.2093C9.06927 15.2275 8.84711 15.2411 8.63604 15.2411C6.92349 15.24 5.26734 14.6143 3.96447 13.4763C2.66163 12.3382 1.79728 10.7623 1.52638 9.03095C1.27408 9.70006 1.14452 10.4111 1.14423 11.1283C1.15193 12.0032 1.34366 12.866 1.70635 13.6582C2.06905 14.4503 2.59419 15.1532 3.24602 15.7189C4.05181 16.3819 4.96881 16.8891 5.95214 17.2157C7.55621 17.7513 9.27861 17.7928 10.9055 17.335C12.5324 16.8772 13.9922 15.9403 15.1036 14.6406C15.6505 14.0003 16.1054 13.2833 16.4545 12.5114C16.5056 12.3703 16.55 12.227 16.59 12.0837C16.9988 10.6005 16.6589 9.2971 15.8102 8.54187" fill="#D80028"/>
<path d="M62.6052 8.13012V15.3981C62.6055 15.4158 62.6022 15.4334 62.5959 15.4498C62.5892 15.4662 62.5796 15.4812 62.5673 15.4937C62.5553 15.5062 62.5406 15.5161 62.5247 15.5227C62.5084 15.5294 62.4913 15.5326 62.4742 15.5323H60.8144C60.7972 15.5323 60.7804 15.5288 60.7645 15.5221C60.7489 15.5153 60.7345 15.5054 60.7224 15.4929C60.7104 15.4804 60.7011 15.4656 60.6948 15.4493C60.6885 15.433 60.6852 15.4156 60.6855 15.3981V8.7648C60.6855 6.66744 59.5613 5.43221 57.6284 5.43221C55.7886 5.43221 54.349 6.73793 54.349 8.81255V15.3981C54.3493 15.4158 54.346 15.4334 54.3397 15.4498C54.3331 15.4662 54.3235 15.4812 54.3115 15.4937C54.2992 15.5062 54.2844 15.5161 54.2685 15.5227C54.2523 15.5294 54.2352 15.5326 54.218 15.5323H52.5516C52.5342 15.5326 52.5171 15.5294 52.5011 15.5227C52.4852 15.5161 52.4705 15.5062 52.4582 15.4937C52.4462 15.4812 52.4362 15.4662 52.4299 15.4498C52.4233 15.4334 52.4203 15.4158 52.4206 15.3981V8.7648C52.4206 6.66744 51.2965 5.43221 49.3632 5.43221C47.5727 5.43221 46.073 6.69018 46.073 8.81255V15.3981C46.0733 15.4158 46.07 15.4334 46.0634 15.4498C46.0571 15.4662 46.0475 15.4812 46.0352 15.4937C46.0229 15.5062 46.0085 15.5161 45.9922 15.5227C45.9763 15.5294 45.9592 15.5326 45.9418 15.5323H44.2955C44.2783 15.5326 44.2609 15.5294 44.245 15.5227C44.2291 15.5161 44.2143 15.5062 44.202 15.4937C44.19 15.4812 44.1804 15.4662 44.1738 15.4498C44.1672 15.4334 44.1642 15.4158 44.1645 15.3981V3.94676C44.1645 3.91116 44.1783 3.87704 44.2029 3.85187C44.2273 3.8267 44.2606 3.81255 44.2955 3.81255H45.9306C45.9652 3.81313 45.9982 3.82747 46.0229 3.85252C46.0472 3.87756 46.0613 3.91135 46.0619 3.94676V4.92267C46.0622 4.94883 46.0703 4.97427 46.0848 4.99578C46.0995 5.01726 46.1199 5.03381 46.1439 5.04332C46.1677 5.05283 46.1938 5.05489 46.2188 5.0492C46.2437 5.0435 46.2665 5.03033 46.2839 5.01138C47.1993 3.94904 48.5058 3.57372 49.7012 3.57372C51.4962 3.57372 52.9316 4.35624 53.7004 5.66196C53.7121 5.68126 53.7284 5.69713 53.7479 5.70815C53.7674 5.71917 53.789 5.72492 53.8113 5.72492C53.8335 5.72492 53.8554 5.71917 53.875 5.70815C53.8942 5.69713 53.9107 5.68126 53.9224 5.66196C54.8579 4.09009 56.5042 3.57144 57.955 3.57144C60.7056 3.57144 62.592 5.39126 62.592 8.12101" fill="black"/>
<path d="M76.058 9.50865C76.058 12.9481 73.6141 15.4436 70.5035 15.4436C68.8927 15.4436 67.6642 14.8567 66.8041 13.9354C66.7864 13.9162 66.7633 13.9029 66.7377 13.8973C66.7125 13.8918 66.6861 13.8942 66.662 13.9043C66.638 13.9144 66.6176 13.9316 66.6032 13.9538C66.589 13.976 66.5815 14.0021 66.5821 14.0286V19.8658C66.5815 19.9012 66.5674 19.935 66.5431 19.96C66.5187 19.9851 66.4857 19.9994 66.4511 20H64.7934C64.7589 19.9994 64.7258 19.9851 64.7015 19.96C64.6772 19.935 64.663 19.9012 64.6624 19.8658V3.94221C64.6624 3.90661 64.6763 3.87249 64.7009 3.84732C64.7255 3.82215 64.7589 3.808 64.7934 3.808H66.4421C66.4593 3.808 66.4764 3.81148 66.4923 3.81821C66.5082 3.82495 66.5226 3.83486 66.5347 3.84732C66.547 3.85978 66.5566 3.87458 66.5632 3.89086C66.5698 3.90714 66.5731 3.92458 66.5731 3.94221V4.98178C66.5728 5.00837 66.58 5.03443 66.5944 5.05661C66.6086 5.07883 66.6293 5.09609 66.653 5.10618C66.6771 5.11625 66.7035 5.11868 66.729 5.11311C66.7543 5.10757 66.7774 5.09431 66.7954 5.07508C67.6552 4.15378 68.8839 3.56914 70.4945 3.56914C73.6051 3.56914 76.049 6.07141 76.049 9.50409L76.058 9.50865ZM66.4466 9.50409C66.4466 11.8403 68.0151 13.5987 70.2635 13.5987C72.5719 13.5987 74.0806 11.7652 74.0806 9.50409C74.0806 7.24295 72.5253 5.40945 70.2635 5.40945C68.0019 5.40945 66.4466 7.17243 66.4466 9.50409Z" fill="black"/>
<path d="M97.6912 6.21929C97.6828 6.23511 97.6714 6.24898 97.6573 6.26003C97.6435 6.27108 97.6275 6.27911 97.6104 6.2836C97.5933 6.28806 97.5756 6.28892 97.5582 6.28606C97.5407 6.28323 97.5239 6.27674 97.5092 6.26705C96.4559 5.63735 95.2605 5.30018 94.0411 5.28889C92.5192 5.28889 91.5347 5.94631 91.5347 6.97908C91.5347 7.88898 92.3435 8.30981 93.6899 8.47588L94.9784 8.64422C97.3449 8.96951 98.7379 9.98861 98.7379 11.8699C98.7379 14.04 96.8404 15.4436 93.8077 15.4436C92.4747 15.4436 90.6707 15.1228 89.2221 14.0559C89.1951 14.0355 89.1767 14.0054 89.1704 13.9716C89.1644 13.9379 89.1707 13.903 89.1887 13.874L89.9374 12.641C89.947 12.6254 89.9596 12.612 89.9746 12.6016C89.9894 12.5912 90.0065 12.5841 90.0242 12.5806C90.0419 12.5772 90.06 12.5776 90.0777 12.5817C90.0951 12.5858 90.1116 12.5937 90.1264 12.6046C90.9438 13.2257 92.0391 13.7284 93.8188 13.7284C95.6451 13.7284 96.7692 13.1165 96.7692 11.9904C96.7692 11.151 96.0449 10.6256 94.5341 10.4322L93.2456 10.2752C90.7506 9.9636 89.5441 8.81255 89.5441 7.09052C89.5441 4.90902 91.3214 3.58963 94.0189 3.58963C95.7208 3.58963 97.2803 4.04458 98.3558 4.75431C98.3834 4.77338 98.4032 4.80261 98.4104 4.83603C98.4179 4.86945 98.4125 4.90449 98.3957 4.93403L97.6912 6.21929Z" fill="black"/>
<path d="M107.458 6.21929C107.449 6.23517 107.438 6.24908 107.424 6.26018C107.41 6.27126 107.393 6.27926 107.376 6.28375C107.359 6.28821 107.341 6.28905 107.323 6.28615C107.306 6.28329 107.289 6.2768 107.274 6.26705C106.221 5.63735 105.025 5.30018 103.806 5.28889C102.284 5.28889 101.3 5.94631 101.3 6.97908C101.3 7.88898 102.108 8.30981 103.455 8.47588L104.743 8.64422C107.109 8.96951 108.502 9.98861 108.502 11.8699C108.502 14.04 106.605 15.4436 103.573 15.4436C102.239 15.4436 100.435 15.1228 98.9866 14.0559C98.9599 14.0355 98.9413 14.0054 98.9353 13.9716C98.929 13.9379 98.9356 13.903 98.9533 13.874L99.7043 12.641C99.7136 12.6255 99.7263 12.6121 99.741 12.6017C99.7557 12.5914 99.7722 12.5842 99.7897 12.5808C99.8074 12.5774 99.8254 12.5777 99.8428 12.5818C99.8603 12.5859 99.8765 12.5937 99.8909 12.6046C100.709 13.2257 101.804 13.7284 103.583 13.7284C105.41 13.7284 106.534 13.1165 106.534 11.9904C106.534 11.151 105.81 10.6256 104.299 10.4322L103.01 10.2752C100.515 9.9636 99.3087 8.81255 99.3087 7.09052C99.3087 4.90902 101.086 3.58963 103.783 3.58963C105.485 3.58963 107.045 4.04458 108.12 4.75431C108.148 4.77338 108.168 4.80261 108.175 4.83603C108.183 4.86945 108.177 4.90449 108.16 4.93403L107.458 6.21929Z" fill="black"/>
<path d="M28.8409 12.4409C28.8291 12.4287 28.8151 12.419 28.7996 12.4124C28.7842 12.4058 28.7676 12.4024 28.7509 12.4024C28.7341 12.4024 28.7176 12.4058 28.7021 12.4124C28.6867 12.419 28.6727 12.4287 28.6609 12.4409C27.0168 14.0332 24.6928 13.9854 23.1509 12.4045C21.569 10.7848 21.5601 8.35077 23.2087 6.66514C24.8572 4.97951 27.1346 4.99545 28.7142 6.52185C28.726 6.534 28.74 6.54366 28.7554 6.55028C28.7709 6.55686 28.7875 6.56025 28.8042 6.56025C28.8209 6.56025 28.8375 6.55686 28.853 6.55028C28.8684 6.54366 28.8824 6.534 28.8942 6.52185L29.9851 5.40493C29.9975 5.39222 30.0074 5.37717 30.0141 5.36059C30.0208 5.34397 30.0243 5.32619 30.0243 5.30822C30.0243 5.29028 30.0208 5.2725 30.0141 5.25588C30.0074 5.2393 29.9975 5.22425 29.9851 5.21154C27.6011 2.86624 24.1285 2.88899 21.8245 5.24794C19.5205 7.60693 19.4983 11.2602 21.8823 13.7011C24.2329 16.1078 27.71 16.1579 30.045 13.8694C30.0577 13.8567 30.0673 13.8417 30.0742 13.8251C30.0808 13.8085 30.0844 13.7907 30.0844 13.7727C30.0844 13.7548 30.0808 13.737 30.0742 13.7204C30.0673 13.7038 30.0577 13.6887 30.045 13.6761L28.8409 12.4409Z" fill="black"/>
<path d="M32.9044 9.5041C32.9384 9.50351 32.9708 9.48942 32.9948 9.4648C33.0189 9.44019 33.0327 9.40699 33.0333 9.37216C33.0979 7.05871 34.7706 5.40948 36.9547 5.40948C39.1922 5.40948 40.8785 7.12468 40.8785 9.5041C40.8785 11.8449 39.2544 13.5282 37.0815 13.5987C37.0475 13.5993 37.0154 13.6135 36.9916 13.6382C36.9679 13.6629 36.9547 13.6961 36.9547 13.7307V15.3094C36.9547 15.3275 36.9583 15.3454 36.9652 15.3622C36.9721 15.3789 36.982 15.394 36.9946 15.4067C37.0073 15.4194 37.0223 15.4294 37.0385 15.4361C37.055 15.4429 37.0727 15.4462 37.0902 15.4459C40.3942 15.3776 42.8336 12.8481 42.8336 9.51093C42.8336 6.13059 40.3275 3.57597 36.9547 3.57597C33.6221 3.57597 31.1358 6.05779 31.0649 9.3676C31.0649 9.40403 31.0788 9.43899 31.1037 9.46496C31.1286 9.4909 31.1626 9.50579 31.198 9.50637L32.9044 9.5041Z" fill="black"/>
<path d="M87.9156 3.81255H86.2693C86.2344 3.81255 86.2011 3.82667 86.1764 3.85184C86.1521 3.87701 86.1383 3.91116 86.1383 3.94676V4.96587C85.0664 3.99688 83.682 3.46922 82.2523 3.48498C78.9486 3.48498 76.4533 6.05095 76.4533 9.50409C76.4533 12.9163 78.8774 15.4595 82.1099 15.5323C82.1277 15.5326 82.1454 15.5293 82.1619 15.5225C82.1781 15.5158 82.1932 15.5058 82.2058 15.4931C82.2184 15.4804 82.2283 15.4653 82.2352 15.4486C82.2421 15.4319 82.2457 15.4139 82.2457 15.3958V13.6488C82.2451 13.6145 82.2316 13.5819 82.2079 13.5577C82.1842 13.5335 82.1523 13.5197 82.119 13.5191C79.8571 13.4531 78.2465 11.7379 78.2465 9.50409C78.2465 7.21335 79.9217 5.48679 82.2457 5.48679C84.2318 5.48679 86.1314 6.90855 86.1314 8.53273V15.3981C86.1311 15.4158 86.1344 15.4334 86.141 15.4498C86.1473 15.4662 86.1569 15.4811 86.1692 15.4937C86.1815 15.5062 86.196 15.5161 86.2122 15.5227C86.2281 15.5293 86.2452 15.5326 86.2627 15.5323H87.909C87.9261 15.5326 87.9435 15.5293 87.9594 15.5227C87.9754 15.5161 87.9901 15.5062 88.0024 15.4937C88.0144 15.4811 88.0243 15.4662 88.0306 15.4498C88.0372 15.4334 88.0402 15.4158 88.0399 15.3981V3.94676C88.0399 3.91116 88.0261 3.87701 88.0015 3.85184C87.9772 3.82667 87.9438 3.81255 87.909 3.81255" fill="black"/>
<path d="M38.19 10.7325L38.7476 8.60327C38.7752 8.49933 38.7755 8.38976 38.7485 8.28567C38.7215 8.1816 38.668 8.08668 38.5935 8.0105C38.519 7.93434 38.4265 7.87963 38.3246 7.85191C38.2231 7.82419 38.1161 7.8244 38.0146 7.85259L35.9351 8.4213C35.8332 8.44914 35.7404 8.50397 35.6656 8.58025C35.5911 8.65656 35.5376 8.7516 35.5103 8.85585C35.4829 8.9601 35.4832 9.06985 35.5106 9.17407C35.5379 9.27828 35.5914 9.3733 35.6662 9.44951L37.1881 11.0077C37.2626 11.0836 37.3552 11.138 37.4567 11.1657C37.5582 11.1934 37.6649 11.1932 37.7664 11.1654C37.868 11.1375 37.9605 11.0829 38.0347 11.0069C38.1092 10.9309 38.1627 10.8363 38.19 10.7325Z" fill="#EFCA30"/>
<path d="M142.591 11.3148C141.238 11.3148 140.616 10.6028 140.616 9.21973V0.682434H136.47V7.01545C135.994 5.96717 135.235 5.08003 134.283 4.4584C133.331 3.83674 132.225 3.5065 131.096 3.5065C129.967 3.5065 128.861 3.83674 127.909 4.4584C126.957 5.08003 126.197 5.96717 125.721 7.01545V3.63966H121.629V9.59736C121.629 10.671 121.078 11.4013 120.151 11.4013C119.225 11.4013 118.674 10.671 118.674 9.59736V3.63966H114.539V9.65194C114.539 13.3326 116.745 15.646 120.162 15.646C122.906 15.646 124.864 14.0878 125.495 11.5628C125.895 12.7474 126.644 13.7759 127.638 14.5072C128.633 15.2385 129.824 15.6366 131.048 15.6468C132.272 15.657 133.469 15.2789 134.476 14.5643C135.481 13.8497 136.247 12.8338 136.666 11.656C137.277 14.3585 139.272 15.555 141.951 15.555H143V11.3148H142.591ZM131.096 11.4058C130.744 11.4058 130.401 11.2991 130.108 11.0991C129.816 10.8991 129.588 10.6149 129.453 10.2824C129.319 9.94988 129.284 9.58397 129.353 9.23096C129.421 8.87794 129.59 8.55366 129.839 8.29917C130.087 8.04465 130.404 7.87133 130.749 7.80111C131.094 7.7309 131.451 7.76693 131.776 7.90468C132.101 8.0424 132.378 8.27566 132.574 8.57493C132.769 8.87422 132.873 9.22606 132.873 9.58597C132.873 10.0686 132.686 10.5315 132.353 10.8728C132.019 11.2141 131.567 11.4058 131.096 11.4058Z" fill="black"/>
</g>
<defs>
<clipPath id="clip0_56_638">
<rect width="143" height="20" fill="white"/>
</clipPath>
</defs>
</svg>
