<svg width="324" height="275" viewBox="0 0 324 275" fill="none" xmlns="http://www.w3.org/2000/svg">
<g clip-path="url(#clip0_79_1156)">
<path d="M263.872 132.725C263.872 136.589 263.711 140.414 263.388 144.2C263.134 147.155 262.787 150.084 262.347 152.986C261.88 156.059 261.307 159.095 260.629 162.094V162.097C260.186 164.071 259.699 166.028 259.169 167.97C257.63 173.613 255.717 179.147 253.441 184.533C252.946 185.705 252.436 186.868 251.909 188.024C249.915 192.4 247.683 196.663 245.223 200.792C238.322 212.387 229.709 222.858 219.677 231.847C218.592 232.818 217.491 233.774 216.375 234.713C192.691 254.616 162.798 265.498 131.936 265.45C59.0689 265.45 0 206.028 0 132.725C0 59.4221 59.0689 -1.49008e-05 131.936 -1.49008e-05C161.735 -0.0472813 190.664 10.0995 213.974 28.7744C215.066 29.6454 216.145 30.536 217.21 31.4462C222.408 35.8806 227.259 40.7107 231.72 45.8938H231.723C252.501 69.9884 263.919 100.828 263.872 132.725Z" fill="#FAFAFA"/>
<path d="M38.9474 155.652C26.3789 148.126 16.8927 134.063 18.1243 119.402C29.615 130.465 44.6253 137.083 60.4995 138.085C66.6229 138.449 73.4714 138.213 77.9789 142.398C80.7836 145.002 82.0892 148.923 82.3034 152.757C82.5175 156.59 81.7541 160.403 80.9946 164.166L81.256 165.088C66.63 165.143 51.5159 163.177 38.9474 155.652Z" fill="black" fill-opacity="0.07"/>
<path d="M18.4308 119.386C23.4666 130.461 31.8434 139.658 42.3711 145.671C44.6343 146.946 47.0405 148.04 49.5974 148.548C52.0935 149.024 54.6707 148.818 57.0612 147.953C59.3062 147.192 61.5149 146.151 63.9049 145.952C66.4241 145.741 68.7562 146.719 70.5886 148.432C72.8305 150.527 74.1904 153.308 75.4263 156.073C76.7985 159.144 78.1754 162.356 80.8063 164.564C81.1251 164.832 80.6938 165.313 80.3755 165.046C75.7981 161.204 75.051 154.77 71.3921 150.245C69.6847 148.133 67.3345 146.527 64.5426 146.569C62.1011 146.606 59.8226 147.677 57.556 148.468C55.1762 149.299 52.7921 149.689 50.2796 149.323C47.7094 148.95 45.2557 147.947 42.97 146.737C37.8073 143.953 33.1118 140.369 29.0556 136.118C24.3995 131.291 20.5984 125.699 17.8167 119.584C17.6447 119.205 18.2599 119.01 18.4308 119.386H18.4308Z" fill="white"/>
<path d="M38.8679 143.936C37.6252 145.576 35.8436 146.718 33.8411 147.158C31.8386 147.599 29.7457 147.309 27.9361 146.34C27.5706 146.143 27.8581 145.562 28.2241 145.76C29.9075 146.665 31.8571 146.935 33.721 146.521C35.5849 146.107 37.2403 145.036 38.3884 143.502C38.6383 143.169 39.1164 143.605 38.8679 143.936L38.8679 143.936Z" fill="white"/>
<path d="M55.9734 148.49C55.4505 144.308 53.3797 140.478 50.1741 137.763C49.8563 137.494 50.2875 137.012 50.6049 137.281C53.9355 140.112 56.0824 144.102 56.6171 148.456C56.6678 148.871 56.0238 148.903 55.9734 148.49V148.49Z" fill="white"/>
<path d="M25.1989 130.987C25.8111 130.453 26.282 129.775 26.5692 129.013C26.8564 128.251 26.951 127.429 26.8445 126.621C26.7886 126.207 27.4327 126.175 27.4882 126.587C27.6018 127.48 27.4962 128.387 27.1807 129.23C26.8652 130.073 26.3494 130.825 25.6783 131.421C25.6198 131.482 25.5401 131.519 25.4556 131.523C25.371 131.528 25.2879 131.5 25.2232 131.445C25.16 131.387 25.122 131.307 25.1174 131.221C25.1129 131.135 25.1421 131.051 25.1989 130.987V130.987Z" fill="white"/>
<path d="M58.8075 90.998C58.8497 91.2556 58.8919 91.5131 58.939 91.7732C59.5243 95.2333 60.388 98.6399 61.5217 101.959C61.6053 102.217 61.6938 102.478 61.7846 102.733C64.6007 110.701 68.8627 118.073 74.3542 124.476C76.5417 127.022 78.9186 129.397 81.4642 131.58C84.98 134.594 89.0305 137.582 91.2847 141.474C91.5244 141.877 91.739 142.295 91.9273 142.725L82.3535 164.696C82.3069 164.735 82.2651 164.776 82.2183 164.815L81.8759 165.71C81.7368 165.607 81.5947 165.496 81.4556 165.393C81.3747 165.333 81.2958 165.269 81.2149 165.209C81.1616 165.168 81.1084 165.126 81.058 165.092C81.0402 165.079 81.0225 165.065 81.0097 165.053C80.9593 165.019 80.916 164.982 80.8706 164.95C80.0748 164.336 79.2819 163.715 78.4919 163.088C78.4869 163.086 78.4869 163.086 78.484 163.079C72.4767 158.284 66.8145 152.943 62.1382 146.907C61.9976 146.725 61.8519 146.542 61.7156 146.35C59.6228 143.617 57.7555 140.717 56.1323 137.679C55.2488 136.012 54.4497 134.301 53.7382 132.553C51.9083 128.033 50.7966 123.252 50.4438 118.384C49.7418 108.68 52.1327 98.8588 58.3287 91.5516C58.4873 91.3648 58.6439 91.1826 58.8075 90.998Z" fill="black" fill-opacity="0.07"/>
<path d="M59.0632 91.1696C56.4557 103.062 57.6396 115.479 62.4467 126.657C63.491 129.045 64.757 131.377 66.4947 133.331C68.203 135.222 70.3837 136.619 72.8102 137.376C75.0585 138.128 77.4449 138.635 79.4725 139.923C81.6097 141.281 82.8866 143.474 83.3248 145.951C83.8608 148.982 83.2824 152.026 82.6139 154.983C81.8717 158.266 81.049 161.664 81.828 165.021C81.9224 165.427 81.2896 165.551 81.1953 165.145C79.84 159.305 83.0944 153.715 82.8811 147.886C82.7816 145.166 81.8667 142.459 79.6121 140.802C77.6405 139.353 75.1802 138.828 72.8971 138.087C70.4999 137.309 68.3628 136.176 66.5754 134.363C64.747 132.508 63.3877 130.221 62.2873 127.87C59.8314 122.52 58.2269 116.815 57.5327 110.964C56.7035 104.29 57.0153 97.5234 58.4545 90.9556C58.5438 90.5491 59.1518 90.7658 59.0632 91.1696Z" fill="white"/>
<path d="M60.6882 123.149C58.7146 123.706 56.6084 123.539 54.7459 122.678C52.8835 121.817 51.3859 120.318 50.5208 118.448C50.347 118.069 50.9241 117.78 51.0981 118.159C51.9005 119.901 53.2956 121.298 55.0316 122.096C56.7675 122.895 58.73 123.042 60.5648 122.513C60.9636 122.398 61.0848 123.036 60.6882 123.149H60.6882Z" fill="white"/>
<path d="M71.6203 137.146C73.7057 133.49 74.3448 129.178 73.4099 125.069C73.317 124.661 73.9498 124.538 74.0426 124.944C75.0075 129.222 74.3334 133.709 72.1549 137.508C71.947 137.87 71.4135 137.506 71.6203 137.146Z" fill="white"/>
<path d="M57.524 104.532C58.3322 104.476 59.1142 104.22 59.7996 103.785C60.485 103.351 61.0524 102.752 61.4509 102.042C61.6541 101.678 62.1875 102.042 61.9856 102.405C61.5417 103.187 60.9143 103.847 60.158 104.329C59.4018 104.811 58.5398 105.099 57.6474 105.168C57.5638 105.182 57.4782 105.163 57.408 105.115C57.3378 105.068 57.2882 104.995 57.2693 104.912C57.2534 104.828 57.2712 104.74 57.3189 104.669C57.3666 104.598 57.4403 104.548 57.524 104.532V104.532Z" fill="white"/>
<path d="M91.3933 30.7618L107.542 220.929L75.2449 223.372V33.1813C79.0934 30.6195 84.6178 30.2187 91.3933 30.7618Z" fill="black" fill-opacity="0.15"/>
<path d="M171.105 30.7618L154.956 220.929L187.253 223.372V33.1813C183.405 30.6195 177.88 30.2187 171.105 30.7618Z" fill="black" fill-opacity="0.15"/>
<path d="M182.417 231.232H79.7371C78.0906 231.23 76.5121 230.571 75.3479 229.4C74.1837 228.229 73.5288 226.641 73.5269 224.985V35.9722C73.5288 34.3159 74.1837 32.728 75.3479 31.5568C76.5122 30.3856 78.0907 29.7268 79.7371 29.7249H182.417C184.064 29.7268 185.642 30.3856 186.807 31.5568C187.971 32.728 188.626 34.3159 188.628 35.9722V224.985C188.626 226.641 187.971 228.229 186.807 229.4C185.642 230.571 184.064 231.23 182.417 231.232ZM79.7371 31.7987C78.6372 31.8 77.5827 32.2401 76.8049 33.0225C76.0272 33.8049 75.5897 34.8657 75.5885 35.9722V224.985C75.5897 226.091 76.0271 227.152 76.8049 227.934C77.5827 228.717 78.6372 229.157 79.7371 229.158H182.417C183.517 229.157 184.572 228.717 185.35 227.934C186.127 227.152 186.565 226.091 186.566 224.985V35.9722C186.565 34.8657 186.127 33.8049 185.35 33.0225C184.572 32.2401 183.517 31.8 182.417 31.7987L79.7371 31.7987Z" fill="black" fill-opacity="0.15"/>
<path d="M187.597 61.178H74.5577V63.2518H187.597V61.178Z" fill="black" fill-opacity="0.15"/>
<path d="M187.597 95.7418H74.5577V97.8156H187.597V95.7418Z" fill="black" fill-opacity="0.15"/>
<path d="M111.24 30.7618H109.178V125.121H111.24V30.7618Z" fill="black" fill-opacity="0.15"/>
<path d="M152.976 30.7618H150.915V125.121H152.976V30.7618Z" fill="black" fill-opacity="0.15"/>
<path d="M200.481 236.935H65.1092C62.6488 236.935 60.2892 235.952 58.5495 234.202C56.8098 232.452 55.8324 230.078 55.8324 227.603C55.8324 225.128 56.8098 222.754 58.5495 221.004C60.2892 219.254 62.6488 218.271 65.1092 218.271H200.481C202.942 218.271 205.301 219.254 207.041 221.004C208.781 222.754 209.758 225.128 209.758 227.603C209.758 230.078 208.781 232.452 207.041 234.202C205.301 235.952 202.942 236.935 200.481 236.935Z" fill="black" fill-opacity="0.15"/>
<path d="M187.597 120.282H75.2449V127.195H187.597V120.282Z" fill="black" fill-opacity="0.15"/>
<path d="M111.56 142.282L111.417 142.213C103.758 138.491 93.7286 138.494 78.896 142.225L78.7376 142.265L78.6901 142.108C77.121 136.932 75.3435 131.07 78.6828 128.186C78.7296 119.723 86.1091 112.851 95.1733 112.851C104.236 112.851 111.614 119.719 111.664 128.18C116.631 132.001 114.264 137.647 111.64 142.145L111.56 142.282Z" fill="black"/>
<path d="M158.635 124.16C158.498 124.846 158.212 125.493 157.8 126.056C157.387 126.619 156.856 127.084 156.245 127.418C155.635 127.753 154.958 127.948 154.264 127.991C153.57 128.034 152.875 127.924 152.228 127.667L125.161 155.03L122.747 146.534L149.629 121.124C150.129 120.059 151 119.216 152.077 118.754C153.154 118.292 154.362 118.244 155.472 118.618C156.582 118.992 157.518 119.763 158.1 120.785C158.683 121.806 158.873 123.007 158.635 124.16L158.635 124.16Z" fill="#FAFAFA"/>
<path d="M91.7396 150.502C91.7396 150.502 89.2839 156.1 95.3433 159.553C101.403 163.005 122.58 158.235 126.016 157.569C129.453 156.903 142.287 137.582 142.287 137.582L140.472 128.106L123.451 142.97L91.7396 150.502Z" fill="#FFCE00" fill-opacity="0.9"/>
<path d="M87.2703 181.46L87.6139 188.027C87.6139 188.027 86.5998 193.844 87.4338 195.1C88.2616 196.349 110.849 196.507 110.849 196.507C110.849 196.507 112.342 188.413 113.627 181.329L87.2703 181.46Z" fill="#FAFAFA"/>
<path d="M152.212 268.292L156.935 267.332L155.583 248.144L148.614 249.561L152.212 268.292Z" fill="#FAFAFA"/>
<path d="M158.977 243.322L163.367 241.336L157.672 222.977L151.192 225.908L158.977 243.322Z" fill="#FAFAFA"/>
<path d="M162.801 232.977L154.535 237.686L134.149 204.732C119.838 214.431 105.844 219.076 91.7369 221.554C86.9673 222.409 82.1044 221.976 81.1887 217.092C81.1459 216.864 81.1118 216.634 81.0863 216.403C80.5231 211.069 87.1191 204.232 87.9575 197.705L106.01 196.615L108.236 199.486L129.112 186.574C133.311 183.978 138.832 185.382 141.446 189.711C141.584 189.94 141.712 190.174 141.83 190.414L162.801 232.977Z" fill="black"/>
<path d="M157.741 255.146L148.283 256.03L131.134 220.747C114.128 223.689 98.0844 224.632 84.2075 221.072C79.5091 219.884 76.6371 215.004 77.7927 210.172C77.8468 209.946 77.9092 209.722 77.9801 209.501C79.6409 204.404 83.9883 200.797 87.4135 195.191L112.432 195.573L109.638 205.272L133.942 202.109C138.829 201.472 143.293 205.031 143.912 210.058C143.944 210.323 143.966 210.589 143.976 210.857L157.741 255.146Z" fill="black"/>
<path d="M97.0392 137.266C102.65 137.266 107.198 132.69 107.198 127.046C107.198 121.402 102.65 116.826 97.0392 116.826C91.4285 116.826 86.8802 121.402 86.8802 127.046C86.8802 132.69 91.4285 137.266 97.0392 137.266Z" fill="#FAFAFA"/>
<path d="M91.0835 140.955L100.398 142.058C100.791 142.104 101.16 142.273 101.453 142.54C101.746 142.807 101.949 143.16 102.033 143.548L103.515 150.368L112.749 161.307C112.749 161.307 116.065 167.562 114.821 174.651C113.578 181.739 113.031 187.006 113.031 187.006C113.031 187.006 88.2604 196.349 87.4314 195.099C86.6024 193.848 86.3334 188.166 86.3334 188.166L83.0174 151.055C83.0174 151.055 86.7479 144.8 88.8204 144.8C90.158 144.755 89.9864 141.726 91.0835 140.955Z" fill="#FFCE00" fill-opacity="0.9"/>
<path d="M113.283 189.288C114.59 189.288 115.648 188.01 115.648 186.433C115.648 184.856 114.59 183.578 113.283 183.578C111.977 183.578 110.918 184.856 110.918 186.433C110.918 188.01 111.977 189.288 113.283 189.288Z" fill="#FFCE00" fill-opacity="0.9"/>
<path d="M149.869 263.351L157.068 259.722L158.425 262.906L167.529 264.757C167.979 264.849 168.388 265.082 168.696 265.424C169.004 265.766 169.196 266.198 169.243 266.657C169.29 267.116 169.19 267.578 168.958 267.976C168.725 268.374 168.372 268.686 167.951 268.868L159.154 272.661L156.296 270.165L157.046 273.57L153.73 275L149.869 263.351Z" fill="black"/>
<path d="M156.916 241.794L164.051 238.038L165.463 241.198L174.598 242.888C175.049 242.971 175.462 243.197 175.776 243.534C176.091 243.87 176.29 244.298 176.345 244.756C176.4 245.214 176.308 245.678 176.083 246.08C175.857 246.482 175.51 246.801 175.091 246.99L166.363 250.938L163.461 248.493L164.271 251.884L160.98 253.373L156.916 241.794Z" fill="black"/>
<path d="M91.235 123.841C88.5511 123.845 85.9316 123.014 83.736 121.461L83.6627 121.409V121.319C83.6657 118.707 84.6983 116.203 86.534 114.357C88.3698 112.51 90.8587 111.471 93.4549 111.468H97.5779C100.174 111.471 102.663 112.51 104.499 114.357C106.334 116.203 107.367 118.707 107.37 121.319C107.367 121.917 107.133 122.49 106.716 122.916C106.3 123.342 105.734 123.588 105.14 123.601L91.4667 123.839C91.3895 123.84 91.312 123.841 91.235 123.841Z" fill="black"/>
<path d="M108.057 119.427C109.372 118.664 109.591 116.57 108.548 114.752C107.504 112.933 105.592 112.078 104.278 112.842C102.963 113.605 102.743 115.699 103.787 117.517C104.831 119.335 106.742 120.191 108.057 119.427Z" fill="black"/>
<path d="M87.496 117.398C88.972 115.914 89.2983 113.835 88.2249 112.755C87.1515 111.675 85.0848 112.003 83.6088 113.488C82.1329 114.973 81.8066 117.052 82.88 118.132C83.9534 119.211 86.0201 118.883 87.496 117.398Z" fill="black"/>
<path d="M177.406 210.839H167.265C167.037 210.839 166.811 210.889 166.603 210.985C166.395 211.082 166.211 211.223 166.063 211.398C165.689 211.329 165.304 211.35 164.94 211.46C164.576 211.569 164.242 211.764 163.967 212.029C163.693 212.293 163.484 212.619 163.358 212.98C163.233 213.341 163.195 213.727 163.246 214.106C163.298 214.485 163.438 214.846 163.656 215.16C163.873 215.474 164.161 215.732 164.497 215.912C164.832 216.092 165.205 216.19 165.585 216.196C165.966 216.203 166.342 216.119 166.684 215.952L167.525 218.701C167.624 219.027 167.825 219.312 168.098 219.514C168.37 219.717 168.7 219.826 169.039 219.826H175.632C175.971 219.826 176.301 219.717 176.573 219.514C176.846 219.312 177.047 219.027 177.146 218.701L178.92 212.902C178.993 212.664 179.009 212.411 178.967 212.165C178.926 211.92 178.827 211.687 178.68 211.486C178.533 211.286 178.341 211.123 178.119 211.01C177.898 210.898 177.654 210.839 177.406 210.839ZM165.636 215.505C165.18 215.505 164.743 215.323 164.421 214.999C164.099 214.675 163.918 214.236 163.918 213.777C163.918 213.319 164.099 212.879 164.421 212.555C164.743 212.231 165.18 212.049 165.636 212.049C165.667 212.049 165.696 212.057 165.727 212.058C165.659 212.337 165.667 212.628 165.751 212.902L166.477 215.275C166.221 215.424 165.931 215.504 165.636 215.505Z" fill="black" fill-opacity="0.9"/>
<path d="M132.126 203.336C131.434 203.401 130.736 203.312 130.081 203.075C129.426 202.839 128.831 202.461 128.338 201.969C127.844 201.476 127.464 200.88 127.224 200.224C126.984 199.567 126.89 198.866 126.948 198.169L93.1261 179.936L100.524 175.171L132.433 193.786C133.591 193.963 134.644 194.56 135.393 195.466C136.142 196.371 136.534 197.521 136.496 198.699C136.458 199.876 135.993 200.998 135.187 201.853C134.382 202.708 133.293 203.236 132.126 203.336Z" fill="#FAFAFA"/>
<path d="M87.8484 146.428C87.8484 146.428 81.8128 145.668 80.2638 152.498C78.7147 159.328 89.333 178.368 90.9531 181.488C92.5732 184.608 114.655 191.433 114.655 191.433L123.157 186.965L104.119 174.827L87.8484 146.428Z" fill="#FFCE00" fill-opacity="0.9"/>
<path d="M130.39 118.208H132.452C133.454 118.208 134.415 118.609 135.124 119.322C135.833 120.035 136.231 121.002 136.231 122.01H126.611C126.611 121.002 127.009 120.035 127.718 119.322C128.426 118.609 129.388 118.208 130.39 118.208Z" fill="black" fill-opacity="0.15"/>
<path d="M65.0204 47.2714C76.2998 47.2714 85.4436 38.0729 85.4436 26.726C85.4436 15.3791 76.2998 6.18064 65.0204 6.18064C53.7409 6.18064 44.5971 15.3791 44.5971 26.726C44.5971 38.0729 53.7409 47.2714 65.0204 47.2714Z" fill="#FF8000"/>
<path d="M127.552 25.6553C122.147 19.9514 115.869 14.748 108.438 11.9983C106.368 11.2291 104.222 10.6865 102.036 10.3799C102.019 10.3775 102.002 10.3811 101.985 10.3797C101.949 10.3705 101.913 10.3633 101.877 10.3583C98.8198 9.96661 95.7172 10.155 92.7296 10.9139C91.2685 11.2827 89.8432 11.7822 88.4706 12.4064C87.0932 13.0824 85.7586 13.8433 84.4743 14.6847C81.756 16.3216 78.7632 17.4448 75.6433 17.9989C74.0773 18.2825 72.4912 18.4391 70.9003 18.4672C69.5199 18.4951 68.218 18.5433 66.9102 19.045C65.5131 19.5735 64.2581 20.4232 63.2454 21.5263C62.2327 22.6293 61.4904 23.9552 61.0775 25.3982C61.0457 25.5267 61.0553 25.662 61.1049 25.7847C61.1545 25.9073 61.2416 26.011 61.3536 26.0806C61.7074 26.3355 62.0523 26.6247 62.424 26.8518C62.7547 27.0041 63.1078 27.101 63.4696 27.1387C64.0605 27.2641 64.6523 27.3859 65.2448 27.504C67.4275 27.9391 69.6192 28.3242 71.8201 28.6594C76.2734 29.3376 80.7508 29.8153 85.2523 30.0925C94.2699 30.642 103.319 30.3684 112.287 29.2752C117.328 28.661 122.334 27.7899 127.286 26.6653C127.387 26.6358 127.478 26.5808 127.551 26.5055C127.624 26.4302 127.676 26.3373 127.703 26.2356C127.729 26.134 127.729 26.0272 127.703 25.9255C127.676 25.8239 127.624 25.7308 127.552 25.6553Z" fill="black" fill-opacity="0.07"/>
<path d="M65.9897 39.3922C63.9197 38.623 61.7733 38.0804 59.5878 37.7738C59.5703 37.7714 59.5536 37.7749 59.5361 37.7735C59.5006 37.7643 59.4645 37.7572 59.4281 37.7522C56.3715 37.3605 53.2688 37.5489 50.2812 38.3077C48.8202 38.6765 47.3949 39.176 46.0223 39.8002C44.6448 40.4762 43.3102 41.2371 42.0259 42.0786C39.3077 43.7155 36.3148 44.8387 33.195 45.3928C31.629 45.6764 30.0429 45.833 28.4519 45.8611C27.0715 45.8889 25.7697 45.9372 24.4618 46.4389C23.0647 46.9674 21.8098 47.817 20.7971 48.9201C19.7844 50.0232 19.042 51.3491 18.6292 52.792C18.5973 52.9205 18.6069 53.0559 18.6566 53.1785C18.7062 53.3012 18.7932 53.4048 18.9052 53.4744C19.259 53.7293 19.6039 54.0185 19.9756 54.2456C20.3063 54.3979 20.6595 54.4948 21.0212 54.5325C21.6122 54.658 22.2039 54.7797 22.7964 54.8979C24.9791 55.3329 27.1709 55.718 29.3717 56.0532C33.8251 56.7314 38.3025 57.2091 42.8039 57.4864C51.8216 58.0358 60.8702 57.7623 69.8388 56.669C74.8792 56.0548 79.8854 55.1838 84.8381 54.0592C84.9384 54.0297 85.0294 53.9746 85.1022 53.8993C85.1751 53.824 85.2275 53.7311 85.2541 53.6295C85.2808 53.5278 85.2809 53.421 85.2545 53.3194C85.228 53.2177 85.1759 53.1246 85.1031 53.0492C79.6982 47.3453 73.4209 42.1419 65.9897 39.3922Z" fill="black" fill-opacity="0.07"/>
<path d="M213.27 192.555L197.565 171.799L185.172 178.848L211.433 210.219L213.27 192.555Z" fill="black" fill-opacity="0.9"/>
<path d="M249.449 158.814C249.798 167.512 251.137 176.142 253.441 184.533C252.946 185.705 252.436 186.868 251.909 188.024C249.915 192.4 247.683 196.663 245.223 200.792C238.322 212.387 229.709 222.858 219.677 231.847C218.592 232.818 217.491 233.774 216.375 234.713C210.016 225.892 206.583 216.159 205.226 206.142C205.054 204.87 204.913 203.584 204.807 202.306V202.299C204.546 199.191 204.463 196.07 204.556 192.953C204.56 192.704 204.566 192.451 204.577 192.199C204.697 188.867 204.996 185.528 205.446 182.221V182.217C205.498 181.837 205.549 181.457 205.607 181.076C205.772 179.936 205.958 178.795 206.161 177.662C207.34 171.123 208.987 164.679 211.088 158.378V158.375C211.146 158.192 211.204 158.012 211.27 157.832C211.497 157.148 211.727 156.47 211.964 155.793C211.979 155.74 211.997 155.688 212.019 155.637C212.325 154.753 212.637 153.875 212.957 153.004C213.043 152.762 213.132 152.52 213.225 152.278C213.586 151.307 213.953 150.342 214.328 149.392C214.444 149.088 214.565 148.783 214.685 148.483C214.778 148.251 214.867 148.02 214.963 147.791V147.788C215.51 146.43 216.063 145.098 216.623 143.792C218.193 140.122 219.808 136.669 221.381 133.486L221.385 133.482C227.916 120.303 233.854 111.745 233.854 111.745L256.149 119.003C253.489 123.749 251.431 130.748 250.304 139.005C249.436 145.568 249.15 152.196 249.449 158.81L249.449 158.814Z" fill="black" fill-opacity="0.9"/>
<path d="M212.393 156.702C212.263 156.394 212.115 156.094 211.964 155.793C211.18 154.266 210.171 152.868 208.971 151.645C208.792 151.462 208.607 151.279 208.415 151.106C206.345 149.189 203.828 147.827 201.097 147.146C198.366 146.466 195.508 146.489 192.788 147.214L192.775 147.221L192.672 147.249L192.696 147.366C192.799 147.914 192.948 148.452 193.142 148.974C193.194 149.115 193.252 149.25 193.311 149.385C193.335 149.447 193.366 149.502 193.393 149.565C193.393 149.565 193.39 149.568 193.397 149.568C193.397 149.572 193.4 149.575 193.4 149.578C193.465 149.706 193.527 149.838 193.596 149.962C193.455 149.827 193.321 149.689 193.19 149.547C193.063 149.416 192.946 149.278 192.83 149.139C192.429 148.67 192.067 148.168 191.747 147.639L191.692 147.546L191.596 147.584C190.3 148.036 189.063 148.645 187.913 149.399L187.789 149.482C186.911 150.061 185.922 150.449 184.886 150.619C183.849 150.79 182.789 150.739 181.773 150.47C180.172 150.055 178.502 149.979 176.87 150.247C175.239 150.516 173.68 151.122 172.294 152.029C171.375 152.631 170.545 153.36 169.827 154.193C169.765 154.265 169.703 154.341 169.641 154.414C169.511 154.573 169.387 154.735 169.267 154.901C167.975 156.638 167.182 158.698 166.975 160.857L166.968 160.936L167.033 160.981C168.196 161.783 169.511 162.333 170.895 162.599C170.026 162.721 169.145 162.743 168.27 162.664H168.267C167.87 162.631 167.475 162.576 167.085 162.498L167.013 162.485H167.009L166.92 162.467L166.934 162.633C167.036 164.745 167.697 166.791 168.847 168.561L168.882 168.609C168.894 168.627 168.906 168.645 168.916 168.665C169.404 169.415 169.809 170.215 170.126 171.053C170.929 173.134 171.106 175.407 170.634 177.589C170.1 179.922 170.278 182.363 171.143 184.594C172.008 186.825 173.522 188.741 175.485 190.094C177.211 191.288 179.221 191.998 181.309 192.151C181.594 192.175 181.883 192.189 182.172 192.189C183.824 192.194 185.459 191.851 186.971 191.183L187.026 191.162L187.04 191.1C187.331 190.156 187.74 189.252 188.256 188.411C188.087 189.074 188.002 189.755 188.002 190.44V190.668L188.198 190.554C188.366 190.454 188.538 190.346 188.693 190.246C189.621 189.637 190.461 188.902 191.191 188.062C191.476 187.73 191.764 187.409 192.067 187.087L192.07 187.084C192.658 186.455 193.28 185.839 193.926 185.252C195.3 184.01 196.77 182.881 198.323 181.875C199.875 180.872 201.498 179.985 203.178 179.22H203.182C203.371 179.131 203.563 179.044 203.752 178.961C204.589 178.595 205.394 178.16 206.161 177.662C206.188 177.644 206.212 177.63 206.236 177.613C209.558 175.425 211.999 172.123 213.127 168.294C214.254 164.464 213.994 160.357 212.393 156.702L212.393 156.702Z" fill="#FFCE00" fill-opacity="0.9"/>
<path opacity="0.15" d="M171.2 182.496C171.106 182.917 171.035 183.342 170.987 183.77C170.348 181.736 170.255 179.568 170.719 177.487C170.79 177.169 170.844 176.847 170.886 176.523C171.521 178.45 171.629 180.513 171.2 182.496Z" fill="black" fill-opacity="0.9"/>
<path opacity="0.15" d="M171.46 167.503C170.442 167.646 169.41 167.651 168.391 167.518C168.124 167.012 167.894 166.487 167.702 165.947C168.836 166.718 170.115 167.247 171.46 167.503Z" fill="black" fill-opacity="0.9"/>
<path opacity="0.15" d="M168.31 162.553C167.934 163.52 167.684 164.531 167.567 165.562C167.253 164.58 167.068 163.561 167.017 162.531L167.008 162.365L167.17 162.397C167.547 162.468 167.927 162.52 168.31 162.553Z" fill="black" fill-opacity="0.9"/>
<path opacity="0.15" d="M172.382 151.926C173.767 151.018 175.325 150.411 176.956 150.142C178.587 149.873 180.256 149.949 181.856 150.366C182.872 150.636 183.933 150.687 184.971 150.517C186.008 150.347 186.998 149.959 187.876 149.379L188 149.296C189.149 148.541 190.385 147.93 191.681 147.477L191.78 147.443L191.834 147.533C192.347 148.385 192.968 149.167 193.681 149.858C193.248 149.045 192.944 148.169 192.782 147.262L192.758 147.142L192.876 147.111C195.427 146.432 198.101 146.369 200.681 146.927C203.26 147.486 205.672 148.65 207.72 150.325C209.767 152 211.392 154.138 212.461 156.565C213.531 158.991 214.015 161.638 213.874 164.289C213.333 162.128 212.371 160.096 211.044 158.312C209.716 156.528 208.05 155.026 206.142 153.894C204.233 152.762 202.121 152.022 199.926 151.718C197.732 151.413 195.499 151.55 193.357 152.12L193.24 152.151L193.263 152.271C193.426 153.178 193.729 154.054 194.163 154.867C193.449 154.176 192.828 153.395 192.316 152.542L192.261 152.452L192.162 152.487C190.866 152.94 189.63 153.551 188.481 154.306L188.357 154.388C187.479 154.969 186.489 155.357 185.452 155.527C184.415 155.697 183.354 155.645 182.338 155.375C179.678 154.681 176.861 154.936 174.367 156.097C171.874 157.259 169.858 159.254 168.663 161.744C168.131 161.487 167.616 161.197 167.119 160.876L167.052 160.833L167.06 160.753C167.231 158.974 167.798 157.257 168.72 155.729C169.641 154.201 170.893 152.901 172.382 151.926Z" fill="black" fill-opacity="0.9"/>
<path d="M300.114 63.6113L299.787 63.3935L299.55 63.7046C297.715 66.0285 296.256 68.6284 295.224 71.4089C295.367 68.2057 295.923 65.0348 296.881 61.9764L296.984 61.655L296.688 61.4856C292.844 59.2957 288.748 57.5871 284.491 56.3978L284.027 56.2734C280.765 55.3728 277.728 53.7907 275.114 51.63C272.5 49.4693 270.368 46.7787 268.858 43.7336C265.348 36.745 259.802 30.9995 252.961 27.2639C246.121 23.5282 238.31 21.98 230.572 22.8259H230.569C230.486 22.8329 230.401 22.8432 230.318 22.8536C230.177 22.8674 230.04 22.8847 229.902 22.902C229.621 22.94 229.346 22.978 229.071 23.0195C228.837 23.0541 228.6 23.0921 228.366 23.1336C228.243 23.1508 228.123 23.1716 228.002 23.1958C227.882 23.2165 227.758 23.2373 227.638 23.2614H227.635C225.328 23.7004 223.066 24.3542 220.88 25.2143H220.876V25.2177L220.323 25.4355C219.753 25.6705 219.187 25.9194 218.626 26.1821C218.499 26.2408 218.375 26.303 218.248 26.3618C218.214 26.3791 218.176 26.3964 218.141 26.4171C217.781 26.5899 217.423 26.7697 217.069 26.9598C217.018 26.984 216.966 27.0116 216.915 27.0393L216.585 27.2155C215.86 27.6096 215.148 28.0278 214.448 28.4702C214.39 28.5048 214.335 28.5393 214.276 28.5774C214.214 28.6188 214.149 28.6603 214.087 28.7018C214.049 28.7225 214.012 28.7502 213.974 28.7744C213.867 28.84 213.764 28.9092 213.661 28.9817C213.455 29.1165 213.249 29.2548 213.046 29.3965C212.836 29.5382 212.63 29.6868 212.424 29.8355L212.218 29.9841L212.256 30.2399C212.29 30.4507 212.321 30.6616 212.359 30.8689C212.393 31.0763 212.428 31.2802 212.465 31.4842C212.524 31.8264 212.589 32.1651 212.654 32.4934C212.699 32.7112 212.74 32.9255 212.788 33.1363C212.833 33.3541 212.881 33.5718 212.933 33.7896C213.032 34.2389 213.139 34.6744 213.252 35.103C213.307 35.3173 213.366 35.5316 213.427 35.7424C213.462 35.8703 213.496 35.9982 213.534 36.1226C213.561 36.209 213.589 36.2955 213.616 36.3819C213.623 36.4095 213.63 36.4406 213.64 36.4717C213.648 36.501 213.657 36.5299 213.668 36.5581C213.706 36.686 213.744 36.8105 213.781 36.9314C213.802 36.9971 213.823 37.0628 213.847 37.125C213.895 37.2736 213.946 37.4257 213.998 37.5709C214.053 37.7368 214.111 37.9027 214.17 38.0651C214.183 38.1066 214.197 38.1446 214.211 38.1861C214.221 38.2172 214.231 38.2483 214.245 38.2794C214.259 38.314 214.273 38.352 214.286 38.3866C214.345 38.5421 214.403 38.7011 214.465 38.8566C214.486 38.9119 214.506 38.9707 214.53 39.026C215.087 40.4341 215.772 41.7878 216.575 43.07C215.685 42.3027 214.828 41.4892 214.005 40.6298C212.733 39.3008 211.562 37.8786 210.5 36.375C210.414 36.2574 210.328 36.1365 210.249 36.0155C210.088 35.7839 209.93 35.5523 209.775 35.3173C209.61 35.0754 209.452 34.823 209.298 34.5742C209.195 34.4083 209.091 34.2389 208.992 34.073C208.892 33.914 208.799 33.7585 208.71 33.5995L208.442 33.1363H208.439V33.1398L208.061 33.513C207.91 33.6617 207.758 33.8103 207.611 33.9589C202.993 38.633 199.648 44.4237 197.897 50.7742L197.846 50.9643L197.794 51.1613C197.695 51.5139 197.595 51.8561 197.489 52.2052V52.2086C197.386 52.5543 197.276 52.8999 197.159 53.2386C197.052 53.5601 196.942 53.8781 196.826 54.196C196.788 54.3032 196.747 54.4103 196.702 54.5175C196.63 54.7249 196.551 54.9288 196.472 55.1362C196.434 55.2295 196.396 55.3263 196.358 55.4196C196.265 55.6477 196.173 55.8758 196.08 56.1005C196.066 56.1351 196.049 56.1731 196.032 56.2077C196.004 56.2768 195.973 56.3459 195.946 56.4116C195.874 56.5775 195.798 56.7469 195.726 56.9128C195.675 57.0199 195.626 57.1305 195.578 57.2377C195.558 57.2861 195.534 57.3344 195.513 57.3828C195.386 57.6593 195.255 57.9324 195.118 58.202C194.963 58.52 194.805 58.838 194.637 59.1491C194.489 59.4394 194.335 59.7228 194.173 60.0062C193.895 60.5074 193.603 61.0051 193.3 61.489C193.184 61.6757 193.067 61.8623 192.946 62.049C192.919 62.0939 192.891 62.1388 192.864 62.1803C192.764 62.3428 192.661 62.4983 192.555 62.6573C192.483 62.7644 192.41 62.8716 192.338 62.9753C192.218 63.1619 192.091 63.3417 191.96 63.5179C191.926 63.5732 191.888 63.6251 191.85 63.6769C191.658 63.9465 191.466 64.2092 191.27 64.4719C191.263 64.4753 191.263 64.4788 191.259 64.4823C191.253 64.4823 191.253 64.4857 191.249 64.4892C191.163 64.6032 191.077 64.7173 190.988 64.8279C190.871 64.9903 190.744 65.1493 190.617 65.3049C190.411 65.5676 190.194 65.8337 189.974 66.0929C189.968 66.0998 189.964 66.1068 189.957 66.1102C188.819 67.4558 187.586 68.7172 186.267 69.8846C186.243 69.9053 186.226 69.9261 186.202 69.9433C186.016 70.1058 185.831 70.2683 185.638 70.4272C185.559 70.4929 185.48 70.5586 185.401 70.6243C185.271 70.7349 185.137 70.8455 185.006 70.9457C184.991 70.9616 184.973 70.9755 184.955 70.9872C184.838 71.0839 184.724 71.1738 184.608 71.2637C184.467 71.3777 184.326 71.4849 184.182 71.592C183.501 72.1105 182.803 72.6001 182.086 73.061C181.979 73.1336 181.866 73.2062 181.756 73.2753C181.691 73.3168 181.625 73.3583 181.564 73.3928C181.302 73.5553 181.041 73.7143 180.78 73.8663C180.519 74.0219 180.251 74.1705 179.986 74.3157C179.42 74.6267 178.86 74.9516 178.313 75.2904C178.038 75.4632 177.763 75.636 177.492 75.8123C176.413 76.5174 175.374 77.272 174.376 78.0762C173.377 78.8809 172.42 79.7357 171.507 80.6374C171.393 80.748 171.28 80.8621 171.167 80.9796C170.94 81.2042 170.72 81.4324 170.51 81.6605C170.174 82.0096 169.851 82.369 169.531 82.732C167.846 84.6552 166.355 86.7415 165.078 88.9604C164.437 90.0683 163.855 91.2093 163.333 92.3787C162.938 93.2532 162.577 94.1484 162.251 95.054C162.034 95.6588 161.831 96.2694 161.643 96.8858C161.55 97.1935 161.46 97.5045 161.375 97.8156C161.082 98.8698 160.839 99.9344 160.639 101.002C160.478 101.86 160.347 102.718 160.248 103.577C160.196 104.009 160.155 104.441 160.117 104.87C160.029 105.923 159.983 106.978 159.981 108.033C159.975 111.2 160.358 114.355 161.12 117.427C161.289 118.105 161.475 118.779 161.68 119.449C161.783 119.784 161.893 120.116 162.003 120.448C162.282 121.278 162.59 122.099 162.928 122.912C163.13 123.4 163.343 123.884 163.567 124.364C164.986 127.418 166.797 130.272 168.954 132.853C169.308 133.278 169.673 133.696 170.05 134.108C170.053 134.108 170.05 134.111 170.05 134.111C170.985 135.137 171.975 136.111 173.015 137.028H173.019C173.434 137.398 173.857 137.756 174.286 138.103C174.29 138.1 174.29 138.103 174.29 138.103C174.723 138.456 175.159 138.794 175.606 139.123C175.829 139.285 176.056 139.448 176.286 139.61C176.736 139.932 177.195 140.242 177.664 140.54H177.667C178.135 140.844 178.609 141.134 179.09 141.411C180.055 141.967 181.045 142.489 182.062 142.963L182.234 143.042L182.409 142.963C184.039 142.225 185.72 141.604 187.439 141.107C187.817 140.996 188.198 140.896 188.576 140.799C189.531 140.561 190.493 140.36 191.462 140.198C190.518 140.674 189.607 141.213 188.734 141.812C188.057 142.272 187.391 142.773 186.721 143.326C186.497 143.509 186.274 143.699 186.051 143.893L185.494 144.377L186.192 144.608C186.446 144.691 186.7 144.774 186.954 144.85C187.301 144.961 187.645 145.061 187.982 145.154C188.717 145.362 189.457 145.545 190.201 145.704C190.383 145.742 190.562 145.78 190.744 145.818C191.098 145.887 191.455 145.956 191.813 146.018C191.827 146.022 191.842 146.024 191.857 146.025C192.228 146.087 192.603 146.146 192.974 146.198C193.665 146.298 194.355 146.378 195.046 146.437C195.121 146.447 195.197 146.45 195.276 146.454C195.444 146.468 195.609 146.481 195.778 146.492C196.149 146.516 196.523 146.533 196.898 146.547C196.925 146.547 196.949 146.551 196.977 146.551C197.166 146.558 197.355 146.564 197.544 146.568C197.544 146.568 197.544 146.571 197.547 146.568C197.736 146.571 197.925 146.575 198.114 146.575H199.158C199.354 146.575 199.55 146.578 199.749 146.578C200.024 146.578 200.303 146.582 200.577 146.585C200.65 146.585 200.725 146.589 200.801 146.589C201.241 146.596 201.68 146.606 202.12 146.616C202.148 146.616 202.175 146.62 202.203 146.62C202.642 146.634 203.082 146.647 203.522 146.668C203.618 146.672 203.714 146.675 203.814 146.682C204.237 146.699 204.659 146.72 205.082 146.744C205.202 146.751 205.326 146.761 205.449 146.768C205.769 146.786 206.092 146.806 206.412 146.831C206.6 146.841 206.786 146.855 206.975 146.872C207.738 146.931 208.497 146.996 209.26 147.073C209.514 147.093 209.768 147.121 210.023 147.149C210.703 147.221 211.385 147.301 212.07 147.387C212.376 147.422 212.682 147.463 212.988 147.505C213.022 147.508 213.056 147.511 213.091 147.518C213.469 147.57 213.843 147.622 214.221 147.677C214.469 147.712 214.716 147.75 214.963 147.788C215.218 147.826 215.472 147.864 215.726 147.909C215.864 147.93 216.001 147.954 216.142 147.978C216.472 148.03 216.805 148.085 217.138 148.147C217.168 148.15 217.198 148.155 217.228 148.161C217.935 148.286 218.647 148.417 219.354 148.559C219.77 148.638 220.182 148.721 220.595 148.808C220.918 148.873 221.241 148.942 221.564 149.012C221.619 149.022 221.674 149.036 221.728 149.05C221.741 149.053 221.753 149.056 221.766 149.056C222.254 149.164 222.746 149.274 223.233 149.392C224.927 149.786 226.619 150.224 228.308 150.705C228.696 150.812 229.085 150.926 229.473 151.04C229.638 151.089 229.799 151.137 229.961 151.186C230.297 151.286 230.631 151.386 230.967 151.493C231.263 151.583 231.562 151.676 231.857 151.773C232.043 151.832 232.228 151.891 232.414 151.953C232.703 152.043 232.991 152.136 233.276 152.236C233.52 152.312 233.761 152.392 234.001 152.478C234.345 152.592 234.692 152.71 235.035 152.834C235.135 152.869 235.238 152.903 235.338 152.941C235.757 153.087 236.176 153.235 236.595 153.391C237.004 153.539 237.413 153.691 237.819 153.844C238.1 153.951 238.382 154.054 238.66 154.165C238.973 154.286 239.286 154.407 239.595 154.531C240.042 154.708 240.492 154.887 240.938 155.071C241.351 155.237 241.759 155.406 242.172 155.582C242.247 155.613 242.326 155.644 242.402 155.679C242.759 155.828 243.117 155.983 243.47 156.139C243.701 156.235 243.927 156.336 244.154 156.436C245.144 156.871 246.132 157.322 247.119 157.787H247.123C247.741 158.081 248.37 158.361 249.002 158.627C249.15 158.689 249.298 158.752 249.449 158.81C249.7 158.918 249.954 159.018 250.208 159.121C250.373 159.187 250.538 159.253 250.706 159.315C250.95 159.412 251.198 159.505 251.445 159.595C251.706 159.692 251.964 159.789 252.228 159.878C252.321 159.913 252.414 159.944 252.51 159.979C252.816 160.082 253.122 160.186 253.431 160.286C253.462 160.297 253.493 160.307 253.527 160.317C253.85 160.421 254.173 160.525 254.5 160.622C254.525 160.631 254.552 160.639 254.579 160.646C254.929 160.753 255.286 160.857 255.64 160.957C256.162 161.102 256.688 161.24 257.214 161.368C257.31 161.392 257.406 161.417 257.502 161.437C257.784 161.506 258.062 161.572 258.344 161.634C258.643 161.703 258.946 161.766 259.244 161.828C259.547 161.89 259.849 161.952 260.148 162.008C260.31 162.039 260.471 162.07 260.629 162.097L261.052 162.17C261.344 162.222 261.636 162.267 261.931 162.315C261.939 162.315 261.948 162.316 261.955 162.319C262.289 162.37 262.618 162.419 262.952 162.46C263.271 162.505 263.591 162.543 263.91 162.581C263.976 162.588 264.044 162.595 264.113 162.602C264.378 162.633 264.642 162.664 264.907 162.688C264.982 162.695 265.058 162.702 265.133 162.709C265.395 162.733 265.656 162.758 265.917 162.775C265.969 162.782 266.022 162.785 266.075 162.785C266.309 162.806 266.542 162.823 266.776 162.834C266.941 162.847 267.102 162.854 267.267 162.865C267.353 162.868 267.435 162.872 267.521 162.875C267.748 162.889 267.975 162.896 268.205 162.903C268.483 162.913 268.762 162.92 269.037 162.927C269.37 162.934 269.707 162.937 270.04 162.937H270.047C270.373 162.937 270.703 162.934 271.029 162.927H271.153L271.514 162.917C271.699 162.913 271.885 162.906 272.067 162.899C272.417 162.885 272.764 162.868 273.112 162.847C273.249 162.841 273.39 162.83 273.527 162.823C273.589 162.82 273.654 162.813 273.716 162.809C273.933 162.796 274.146 162.782 274.362 162.765C274.586 162.747 274.812 162.726 275.036 162.702C275.324 162.675 275.613 162.644 275.901 162.612C276.128 162.588 276.355 162.561 276.578 162.533C276.608 162.53 276.638 162.526 276.668 162.519C276.884 162.495 277.101 162.467 277.314 162.436C277.568 162.402 277.819 162.364 278.069 162.326C278.097 162.322 278.121 162.319 278.148 162.315C278.581 162.246 279.018 162.177 279.454 162.097C279.911 162.015 280.368 161.925 280.822 161.831C280.99 161.797 281.155 161.759 281.323 161.724C281.416 161.703 281.512 161.686 281.602 161.665C281.742 161.634 281.88 161.603 282.017 161.569C282.041 161.565 282.069 161.558 282.093 161.555C282.285 161.513 282.474 161.465 282.667 161.417C283.051 161.323 283.429 161.226 283.807 161.123C283.976 161.081 284.144 161.036 284.305 160.991C284.354 160.978 284.402 160.964 284.446 160.95C285.144 160.753 285.836 160.544 286.522 160.324C286.824 160.228 287.123 160.127 287.422 160.02C288.064 159.799 288.701 159.566 289.332 159.322C289.501 159.26 289.669 159.191 289.837 159.125C290.085 159.025 290.332 158.924 290.576 158.824C290.796 158.731 291.016 158.638 291.239 158.541C291.349 158.496 291.459 158.448 291.569 158.399C291.899 158.254 292.229 158.105 292.555 157.957C292.775 157.853 292.991 157.753 293.208 157.649C293.551 157.483 293.891 157.314 294.232 157.144C294.318 157.1 294.4 157.055 294.483 157.013C294.699 156.903 294.915 156.788 295.135 156.678C295.482 156.491 295.829 156.305 296.173 156.111C296.29 156.049 296.403 155.983 296.52 155.917C296.898 155.703 297.272 155.485 297.643 155.264C298.465 154.77 299.274 154.254 300.073 153.716C300.272 153.584 300.471 153.446 300.667 153.311C301.038 153.056 301.402 152.793 301.766 152.53C301.804 152.503 301.839 152.475 301.876 152.451C302.058 152.316 302.241 152.181 302.423 152.043C302.801 151.756 303.175 151.466 303.55 151.168C303.557 151.165 303.567 151.155 303.577 151.148C303.745 151.013 303.914 150.878 304.079 150.743C304.591 150.325 305.096 149.9 305.59 149.461C305.834 149.25 306.075 149.032 306.312 148.815C306.491 148.652 306.669 148.49 306.845 148.324C307.198 147.989 307.545 147.657 307.889 147.318C308.061 147.152 308.229 146.979 308.401 146.806C308.569 146.634 308.741 146.461 308.91 146.285C308.968 146.226 309.026 146.164 309.085 146.101C309.257 145.918 309.428 145.731 309.6 145.548C309.748 145.389 309.892 145.223 310.04 145.057C310.287 144.781 310.538 144.504 310.782 144.225C310.795 144.209 310.809 144.194 310.823 144.18C310.837 144.162 310.851 144.148 310.861 144.135H310.858C315.852 138.325 319.562 131.515 321.744 124.154C323.926 116.794 324.529 109.051 323.513 101.439C322.498 93.8264 319.886 86.5178 315.852 79.9966C311.819 73.4755 306.454 67.8905 300.114 63.6113L300.114 63.6113Z" fill="#FFCE00" fill-opacity="0.9"/>
<g opacity="0.15">
<path d="M230.57 22.8232C231.254 25.2981 232.285 27.6628 233.63 29.8466C231.378 27.9005 229.366 25.69 227.637 23.2624C228.608 23.0776 229.586 22.9312 230.57 22.8232Z" fill="black" fill-opacity="0.9"/>
<path d="M197.043 61.0982C194.501 62.4943 192.123 64.1757 189.956 66.11C193.615 61.7577 196.289 56.6569 197.793 51.1614C197.811 51.0954 197.829 51.0289 197.847 50.9628L197.898 50.7757C199.705 44.2167 203.212 38.2583 208.059 33.5099L208.44 33.1363L208.709 33.5979C210.195 36.1397 211.973 38.4967 214.007 40.6201C210.891 49.4664 204.826 56.8289 197.043 61.0982Z" fill="black" fill-opacity="0.9"/>
<path d="M214.954 37.555L214.903 37.7421C214.885 37.8082 214.867 37.8747 214.849 37.9407C214.748 38.3044 214.642 38.6653 214.532 39.0248C213.445 36.1927 212.681 33.2455 212.256 30.24L212.216 29.9849L212.425 29.8351C215.039 27.9451 217.879 26.3923 220.877 25.2127C218.185 28.9375 216.179 33.1177 214.954 37.555Z" fill="black" fill-opacity="0.9"/>
<path d="M179.988 74.3189C182.238 73.0797 184.344 71.5923 186.268 69.8841C182.426 74.3839 179.672 79.7174 178.222 85.4669C176.772 91.2164 176.665 97.2256 177.909 103.024C179.154 108.822 181.716 114.251 185.395 118.886C189.075 123.521 193.771 127.237 199.116 129.741L199.29 129.821L199.463 129.743C202.35 128.431 205.394 127.501 208.519 126.976C206.569 127.976 204.751 129.217 203.107 130.672L202.552 131.156L203.249 131.387C203.851 131.588 204.453 131.772 205.038 131.935C208.477 132.899 212.032 133.377 215.601 133.357C231.819 133.252 248.162 137.024 264.178 144.567C266.924 145.859 269.773 146.918 272.694 147.734C285.426 151.3 299.017 150.017 310.867 144.131C304.187 151.904 295.451 157.611 285.675 160.589C275.899 163.567 265.483 163.694 255.638 160.955C252.717 160.139 249.868 159.08 247.122 157.788C231.106 150.245 214.763 146.473 198.545 146.578C194.976 146.598 191.421 146.119 187.982 145.156C187.397 144.993 186.795 144.808 186.193 144.608L185.496 144.376L186.052 143.893C187.695 142.438 189.513 141.196 191.463 140.197C188.338 140.721 185.294 141.651 182.407 142.963L182.234 143.042L182.06 142.961C175.641 139.956 170.179 135.215 166.282 129.268C162.386 123.321 160.209 116.402 159.994 109.283C159.779 102.163 161.534 95.1241 165.065 88.9503C168.595 82.7764 173.762 77.7108 179.988 74.3189L179.988 74.3189Z" fill="black" fill-opacity="0.9"/>
</g>
</g>
<defs>
<clipPath id="clip0_79_1156">
<rect width="324" height="275" fill="white"/>
</clipPath>
</defs>
</svg>
